<mxfile host="app.diagrams.net" modified="2024-02-28T14:23:51.572Z" agent="Mozilla/5.0 (Windows NT 10.0; Win64; x64) AppleWebKit/537.36 (KHTML, like Gecko) Chrome/122.0.0.0 Safari/537.36" etag="O8XxqOCGiPJDjy1DjX39" version="23.1.7" type="github">
  <diagram id="C5RBs43oDa-KdzZeNtuy" name="Page-1">
    <mxGraphModel dx="2049" dy="1066" grid="1" gridSize="10" guides="1" tooltips="1" connect="1" arrows="1" fold="1" page="1" pageScale="1" pageWidth="827" pageHeight="1169" math="0" shadow="0">
      <root>
        <mxCell id="WIyWlLk6GJQsqaUBKTNV-0" />
        <mxCell id="WIyWlLk6GJQsqaUBKTNV-1" parent="WIyWlLk6GJQsqaUBKTNV-0" />
        <mxCell id="otYcFLlBqvZuVtRaeN3p-1" value="&lt;u&gt;IdCliente&lt;/u&gt;" style="ellipse;whiteSpace=wrap;html=1;fillColor=#d5e8d4;strokeColor=#82b366;" parent="WIyWlLk6GJQsqaUBKTNV-1" vertex="1">
          <mxGeometry x="40" y="170" width="90" height="40" as="geometry" />
        </mxCell>
        <mxCell id="otYcFLlBqvZuVtRaeN3p-6" value="nome" style="ellipse;whiteSpace=wrap;html=1;fillColor=#d5e8d4;strokeColor=#82b366;" parent="WIyWlLk6GJQsqaUBKTNV-1" vertex="1">
          <mxGeometry x="10" y="240" width="90" height="40" as="geometry" />
        </mxCell>
        <mxCell id="otYcFLlBqvZuVtRaeN3p-7" value="cliente" style="rounded=0;whiteSpace=wrap;html=1;fillColor=#e1d5e7;strokeColor=#9673a6;" parent="WIyWlLk6GJQsqaUBKTNV-1" vertex="1">
          <mxGeometry x="140" y="370" width="120" height="50" as="geometry" />
        </mxCell>
        <mxCell id="otYcFLlBqvZuVtRaeN3p-9" value="entrega" style="rounded=0;whiteSpace=wrap;html=1;fillColor=#e1d5e7;strokeColor=#9673a6;" parent="WIyWlLk6GJQsqaUBKTNV-1" vertex="1">
          <mxGeometry x="470" y="590" width="120" height="50" as="geometry" />
        </mxCell>
        <mxCell id="otYcFLlBqvZuVtRaeN3p-10" value="funcionario" style="rounded=0;whiteSpace=wrap;html=1;fillColor=#e1d5e7;strokeColor=#9673a6;" parent="WIyWlLk6GJQsqaUBKTNV-1" vertex="1">
          <mxGeometry x="530" y="370" width="120" height="50" as="geometry" />
        </mxCell>
        <mxCell id="otYcFLlBqvZuVtRaeN3p-12" value="" style="endArrow=none;html=1;rounded=0;entryX=0.5;entryY=0;entryDx=0;entryDy=0;exitX=1;exitY=1;exitDx=0;exitDy=0;" parent="WIyWlLk6GJQsqaUBKTNV-1" source="otYcFLlBqvZuVtRaeN3p-1" target="otYcFLlBqvZuVtRaeN3p-7" edge="1">
          <mxGeometry width="50" height="50" relative="1" as="geometry">
            <mxPoint x="200" y="410" as="sourcePoint" />
            <mxPoint x="220" y="360" as="targetPoint" />
          </mxGeometry>
        </mxCell>
        <mxCell id="otYcFLlBqvZuVtRaeN3p-14" value="endereco" style="ellipse;whiteSpace=wrap;html=1;fillColor=#d5e8d4;strokeColor=#82b366;" parent="WIyWlLk6GJQsqaUBKTNV-1" vertex="1">
          <mxGeometry x="150" y="140" width="90" height="40" as="geometry" />
        </mxCell>
        <mxCell id="otYcFLlBqvZuVtRaeN3p-16" value="email" style="ellipse;whiteSpace=wrap;html=1;fillColor=#d5e8d4;strokeColor=#82b366;" parent="WIyWlLk6GJQsqaUBKTNV-1" vertex="1">
          <mxGeometry x="240" y="170" width="90" height="40" as="geometry" />
        </mxCell>
        <mxCell id="otYcFLlBqvZuVtRaeN3p-18" value="" style="endArrow=none;html=1;rounded=0;entryX=0.5;entryY=1;entryDx=0;entryDy=0;exitX=1;exitY=1;exitDx=0;exitDy=0;" parent="WIyWlLk6GJQsqaUBKTNV-1" source="otYcFLlBqvZuVtRaeN3p-6" edge="1">
          <mxGeometry width="50" height="50" relative="1" as="geometry">
            <mxPoint x="199.5" y="410" as="sourcePoint" />
            <mxPoint x="199.5" y="370" as="targetPoint" />
          </mxGeometry>
        </mxCell>
        <mxCell id="otYcFLlBqvZuVtRaeN3p-19" value="" style="endArrow=none;html=1;rounded=0;exitX=0.5;exitY=1;exitDx=0;exitDy=0;" parent="WIyWlLk6GJQsqaUBKTNV-1" source="otYcFLlBqvZuVtRaeN3p-14" edge="1">
          <mxGeometry width="50" height="50" relative="1" as="geometry">
            <mxPoint x="220" y="490" as="sourcePoint" />
            <mxPoint x="200" y="370" as="targetPoint" />
          </mxGeometry>
        </mxCell>
        <mxCell id="otYcFLlBqvZuVtRaeN3p-21" value="" style="endArrow=none;html=1;rounded=0;exitX=0;exitY=1;exitDx=0;exitDy=0;" parent="WIyWlLk6GJQsqaUBKTNV-1" source="otYcFLlBqvZuVtRaeN3p-16" edge="1">
          <mxGeometry width="50" height="50" relative="1" as="geometry">
            <mxPoint x="270" y="450" as="sourcePoint" />
            <mxPoint x="200" y="370" as="targetPoint" />
          </mxGeometry>
        </mxCell>
        <mxCell id="otYcFLlBqvZuVtRaeN3p-22" value="telefone" style="ellipse;whiteSpace=wrap;html=1;fillColor=#d5e8d4;strokeColor=#82b366;" parent="WIyWlLk6GJQsqaUBKTNV-1" vertex="1">
          <mxGeometry x="260" y="240" width="90" height="40" as="geometry" />
        </mxCell>
        <mxCell id="otYcFLlBqvZuVtRaeN3p-23" value="" style="endArrow=none;html=1;rounded=0;exitX=0;exitY=1;exitDx=0;exitDy=0;entryX=0.5;entryY=0;entryDx=0;entryDy=0;" parent="WIyWlLk6GJQsqaUBKTNV-1" source="otYcFLlBqvZuVtRaeN3p-22" target="otYcFLlBqvZuVtRaeN3p-7" edge="1">
          <mxGeometry width="50" height="50" relative="1" as="geometry">
            <mxPoint x="349.5" y="430" as="sourcePoint" />
            <mxPoint x="170" y="340" as="targetPoint" />
          </mxGeometry>
        </mxCell>
        <mxCell id="otYcFLlBqvZuVtRaeN3p-88" value="&lt;u&gt;IdFuncionario&lt;/u&gt;" style="ellipse;whiteSpace=wrap;html=1;fillColor=#d5e8d4;strokeColor=#82b366;" parent="WIyWlLk6GJQsqaUBKTNV-1" vertex="1">
          <mxGeometry x="450" y="210" width="90" height="40" as="geometry" />
        </mxCell>
        <mxCell id="otYcFLlBqvZuVtRaeN3p-89" value="nome" style="ellipse;whiteSpace=wrap;html=1;fillColor=#d5e8d4;strokeColor=#82b366;" parent="WIyWlLk6GJQsqaUBKTNV-1" vertex="1">
          <mxGeometry x="440" y="270" width="90" height="40" as="geometry" />
        </mxCell>
        <mxCell id="otYcFLlBqvZuVtRaeN3p-90" value="" style="endArrow=none;html=1;rounded=0;entryX=0.5;entryY=1;entryDx=0;entryDy=0;exitX=1;exitY=1;exitDx=0;exitDy=0;" parent="WIyWlLk6GJQsqaUBKTNV-1" source="otYcFLlBqvZuVtRaeN3p-88" edge="1">
          <mxGeometry width="50" height="50" relative="1" as="geometry">
            <mxPoint x="590" y="410" as="sourcePoint" />
            <mxPoint x="590" y="370" as="targetPoint" />
          </mxGeometry>
        </mxCell>
        <mxCell id="otYcFLlBqvZuVtRaeN3p-91" value="cargo" style="ellipse;whiteSpace=wrap;html=1;fillColor=#d5e8d4;strokeColor=#82b366;" parent="WIyWlLk6GJQsqaUBKTNV-1" vertex="1">
          <mxGeometry x="550" y="230" width="90" height="40" as="geometry" />
        </mxCell>
        <mxCell id="otYcFLlBqvZuVtRaeN3p-93" value="" style="endArrow=none;html=1;rounded=0;entryX=0.5;entryY=1;entryDx=0;entryDy=0;exitX=1;exitY=1;exitDx=0;exitDy=0;" parent="WIyWlLk6GJQsqaUBKTNV-1" source="otYcFLlBqvZuVtRaeN3p-89" edge="1">
          <mxGeometry width="50" height="50" relative="1" as="geometry">
            <mxPoint x="589.5" y="410" as="sourcePoint" />
            <mxPoint x="589.5" y="370" as="targetPoint" />
          </mxGeometry>
        </mxCell>
        <mxCell id="otYcFLlBqvZuVtRaeN3p-94" value="" style="endArrow=none;html=1;rounded=0;exitX=0.5;exitY=1;exitDx=0;exitDy=0;" parent="WIyWlLk6GJQsqaUBKTNV-1" source="otYcFLlBqvZuVtRaeN3p-91" edge="1">
          <mxGeometry width="50" height="50" relative="1" as="geometry">
            <mxPoint x="610" y="490" as="sourcePoint" />
            <mxPoint x="590" y="370" as="targetPoint" />
          </mxGeometry>
        </mxCell>
        <mxCell id="otYcFLlBqvZuVtRaeN3p-96" value="salario" style="ellipse;whiteSpace=wrap;html=1;fillColor=#d5e8d4;strokeColor=#82b366;" parent="WIyWlLk6GJQsqaUBKTNV-1" vertex="1">
          <mxGeometry x="620" y="270" width="90" height="40" as="geometry" />
        </mxCell>
        <mxCell id="otYcFLlBqvZuVtRaeN3p-97" value="" style="endArrow=none;html=1;rounded=0;exitX=0;exitY=1;exitDx=0;exitDy=0;entryX=0.5;entryY=1;entryDx=0;entryDy=0;" parent="WIyWlLk6GJQsqaUBKTNV-1" source="otYcFLlBqvZuVtRaeN3p-96" edge="1">
          <mxGeometry width="50" height="50" relative="1" as="geometry">
            <mxPoint x="739.5" y="430" as="sourcePoint" />
            <mxPoint x="590" y="370" as="targetPoint" />
          </mxGeometry>
        </mxCell>
        <mxCell id="otYcFLlBqvZuVtRaeN3p-110" value="&lt;u&gt;IdVeiculo&lt;/u&gt;" style="ellipse;whiteSpace=wrap;html=1;fillColor=#d5e8d4;strokeColor=#82b366;" parent="WIyWlLk6GJQsqaUBKTNV-1" vertex="1">
          <mxGeometry x="570" y="470" width="90" height="40" as="geometry" />
        </mxCell>
        <mxCell id="otYcFLlBqvZuVtRaeN3p-111" value="&lt;u&gt;IdEntrega&lt;/u&gt;" style="ellipse;whiteSpace=wrap;html=1;fillColor=#d5e8d4;strokeColor=#82b366;" parent="WIyWlLk6GJQsqaUBKTNV-1" vertex="1">
          <mxGeometry x="600" y="700" width="90" height="40" as="geometry" />
        </mxCell>
        <mxCell id="otYcFLlBqvZuVtRaeN3p-112" value="" style="endArrow=none;html=1;rounded=0;entryX=1;entryY=0.5;entryDx=0;entryDy=0;exitX=0.5;exitY=1;exitDx=0;exitDy=0;" parent="WIyWlLk6GJQsqaUBKTNV-1" source="otYcFLlBqvZuVtRaeN3p-110" edge="1" target="otYcFLlBqvZuVtRaeN3p-9">
          <mxGeometry width="50" height="50" relative="1" as="geometry">
            <mxPoint x="530" y="680" as="sourcePoint" />
            <mxPoint x="530" y="640" as="targetPoint" />
          </mxGeometry>
        </mxCell>
        <mxCell id="otYcFLlBqvZuVtRaeN3p-113" value="&lt;span style=&quot;font-weight: normal;&quot;&gt;&lt;u&gt;IdRota&lt;/u&gt;&lt;/span&gt;" style="ellipse;whiteSpace=wrap;html=1;fontStyle=1;fillColor=#d5e8d4;strokeColor=#82b366;" parent="WIyWlLk6GJQsqaUBKTNV-1" vertex="1">
          <mxGeometry x="631" y="510" width="90" height="40" as="geometry" />
        </mxCell>
        <mxCell id="otYcFLlBqvZuVtRaeN3p-114" value="fim" style="ellipse;whiteSpace=wrap;html=1;fillColor=#d5e8d4;strokeColor=#82b366;" parent="WIyWlLk6GJQsqaUBKTNV-1" vertex="1">
          <mxGeometry x="710" y="660" width="90" height="40" as="geometry" />
        </mxCell>
        <mxCell id="otYcFLlBqvZuVtRaeN3p-115" value="" style="endArrow=none;html=1;rounded=0;entryX=1;entryY=0.5;entryDx=0;entryDy=0;exitX=0.5;exitY=0;exitDx=0;exitDy=0;" parent="WIyWlLk6GJQsqaUBKTNV-1" source="otYcFLlBqvZuVtRaeN3p-111" edge="1" target="otYcFLlBqvZuVtRaeN3p-9">
          <mxGeometry width="50" height="50" relative="1" as="geometry">
            <mxPoint x="529.5" y="680" as="sourcePoint" />
            <mxPoint x="529.5" y="640" as="targetPoint" />
          </mxGeometry>
        </mxCell>
        <mxCell id="otYcFLlBqvZuVtRaeN3p-116" value="" style="endArrow=none;html=1;rounded=0;exitX=0;exitY=1;exitDx=0;exitDy=0;fontStyle=1;entryX=1;entryY=0.5;entryDx=0;entryDy=0;" parent="WIyWlLk6GJQsqaUBKTNV-1" source="otYcFLlBqvZuVtRaeN3p-113" target="otYcFLlBqvZuVtRaeN3p-9" edge="1">
          <mxGeometry width="50" height="50" relative="1" as="geometry">
            <mxPoint x="380" y="550" as="sourcePoint" />
            <mxPoint x="380" y="590" as="targetPoint" />
          </mxGeometry>
        </mxCell>
        <mxCell id="otYcFLlBqvZuVtRaeN3p-117" value="" style="endArrow=none;html=1;rounded=0;exitX=0.5;exitY=0;exitDx=0;exitDy=0;entryX=1;entryY=0.5;entryDx=0;entryDy=0;" parent="WIyWlLk6GJQsqaUBKTNV-1" source="otYcFLlBqvZuVtRaeN3p-114" edge="1" target="otYcFLlBqvZuVtRaeN3p-9">
          <mxGeometry width="50" height="50" relative="1" as="geometry">
            <mxPoint x="600" y="720" as="sourcePoint" />
            <mxPoint x="530" y="640" as="targetPoint" />
          </mxGeometry>
        </mxCell>
        <mxCell id="otYcFLlBqvZuVtRaeN3p-118" value="inicio" style="ellipse;whiteSpace=wrap;html=1;fillColor=#d5e8d4;strokeColor=#82b366;" parent="WIyWlLk6GJQsqaUBKTNV-1" vertex="1">
          <mxGeometry x="700" y="720" width="90" height="40" as="geometry" />
        </mxCell>
        <mxCell id="otYcFLlBqvZuVtRaeN3p-119" value="" style="endArrow=none;html=1;rounded=0;exitX=0.5;exitY=0;exitDx=0;exitDy=0;entryX=1;entryY=0.5;entryDx=0;entryDy=0;" parent="WIyWlLk6GJQsqaUBKTNV-1" source="otYcFLlBqvZuVtRaeN3p-118" edge="1" target="otYcFLlBqvZuVtRaeN3p-9">
          <mxGeometry width="50" height="50" relative="1" as="geometry">
            <mxPoint x="679.5" y="700" as="sourcePoint" />
            <mxPoint x="530" y="640" as="targetPoint" />
          </mxGeometry>
        </mxCell>
        <mxCell id="otYcFLlBqvZuVtRaeN3p-120" value="pedido" style="rounded=0;whiteSpace=wrap;html=1;fillColor=#e1d5e7;strokeColor=#9673a6;" parent="WIyWlLk6GJQsqaUBKTNV-1" vertex="1">
          <mxGeometry x="180" y="620" width="120" height="50" as="geometry" />
        </mxCell>
        <mxCell id="otYcFLlBqvZuVtRaeN3p-121" value="veiculo" style="rounded=0;whiteSpace=wrap;html=1;fillColor=#e1d5e7;strokeColor=#9673a6;" parent="WIyWlLk6GJQsqaUBKTNV-1" vertex="1">
          <mxGeometry x="190" y="870" width="120" height="50" as="geometry" />
        </mxCell>
        <mxCell id="otYcFLlBqvZuVtRaeN3p-122" value="rota" style="rounded=0;whiteSpace=wrap;html=1;fillColor=#e1d5e7;strokeColor=#9673a6;" parent="WIyWlLk6GJQsqaUBKTNV-1" vertex="1">
          <mxGeometry x="540" y="870" width="120" height="50" as="geometry" />
        </mxCell>
        <mxCell id="otYcFLlBqvZuVtRaeN3p-123" value="placa" style="ellipse;whiteSpace=wrap;html=1;fillColor=#d5e8d4;strokeColor=#82b366;" parent="WIyWlLk6GJQsqaUBKTNV-1" vertex="1">
          <mxGeometry x="110" y="940" width="90" height="40" as="geometry" />
        </mxCell>
        <mxCell id="otYcFLlBqvZuVtRaeN3p-125" value="&lt;u&gt;IdVeiculo&lt;/u&gt;" style="ellipse;whiteSpace=wrap;html=1;fillColor=#d5e8d4;strokeColor=#82b366;" parent="WIyWlLk6GJQsqaUBKTNV-1" vertex="1">
          <mxGeometry x="150" y="990" width="90" height="40" as="geometry" />
        </mxCell>
        <mxCell id="otYcFLlBqvZuVtRaeN3p-126" value="capacidade" style="ellipse;whiteSpace=wrap;html=1;fillColor=#d5e8d4;strokeColor=#82b366;" parent="WIyWlLk6GJQsqaUBKTNV-1" vertex="1">
          <mxGeometry x="290" y="940" width="90" height="40" as="geometry" />
        </mxCell>
        <mxCell id="otYcFLlBqvZuVtRaeN3p-127" value="" style="endArrow=none;html=1;rounded=0;entryX=0.5;entryY=1;entryDx=0;entryDy=0;exitX=0.5;exitY=0;exitDx=0;exitDy=0;" parent="WIyWlLk6GJQsqaUBKTNV-1" source="otYcFLlBqvZuVtRaeN3p-123" edge="1">
          <mxGeometry width="50" height="50" relative="1" as="geometry">
            <mxPoint x="249.5" y="960" as="sourcePoint" />
            <mxPoint x="249.5" y="920" as="targetPoint" />
          </mxGeometry>
        </mxCell>
        <mxCell id="otYcFLlBqvZuVtRaeN3p-128" value="" style="endArrow=none;html=1;rounded=0;exitX=0.5;exitY=0;exitDx=0;exitDy=0;" parent="WIyWlLk6GJQsqaUBKTNV-1" source="otYcFLlBqvZuVtRaeN3p-125" edge="1">
          <mxGeometry width="50" height="50" relative="1" as="geometry">
            <mxPoint x="270" y="1040" as="sourcePoint" />
            <mxPoint x="250" y="920" as="targetPoint" />
          </mxGeometry>
        </mxCell>
        <mxCell id="otYcFLlBqvZuVtRaeN3p-129" value="" style="endArrow=none;html=1;rounded=0;exitX=0.5;exitY=0;exitDx=0;exitDy=0;" parent="WIyWlLk6GJQsqaUBKTNV-1" source="otYcFLlBqvZuVtRaeN3p-126" edge="1">
          <mxGeometry width="50" height="50" relative="1" as="geometry">
            <mxPoint x="320" y="1000" as="sourcePoint" />
            <mxPoint x="250" y="920" as="targetPoint" />
          </mxGeometry>
        </mxCell>
        <mxCell id="otYcFLlBqvZuVtRaeN3p-130" value="modelo" style="ellipse;whiteSpace=wrap;html=1;fillColor=#d5e8d4;strokeColor=#82b366;" parent="WIyWlLk6GJQsqaUBKTNV-1" vertex="1">
          <mxGeometry x="250" y="990" width="90" height="40" as="geometry" />
        </mxCell>
        <mxCell id="otYcFLlBqvZuVtRaeN3p-131" value="" style="endArrow=none;html=1;rounded=0;exitX=0.5;exitY=0;exitDx=0;exitDy=0;entryX=0.5;entryY=1;entryDx=0;entryDy=0;" parent="WIyWlLk6GJQsqaUBKTNV-1" source="otYcFLlBqvZuVtRaeN3p-130" edge="1">
          <mxGeometry width="50" height="50" relative="1" as="geometry">
            <mxPoint x="399.5" y="980" as="sourcePoint" />
            <mxPoint x="250" y="920" as="targetPoint" />
          </mxGeometry>
        </mxCell>
        <mxCell id="otYcFLlBqvZuVtRaeN3p-141" value="origem" style="ellipse;whiteSpace=wrap;html=1;fillColor=#d5e8d4;strokeColor=#82b366;" parent="WIyWlLk6GJQsqaUBKTNV-1" vertex="1">
          <mxGeometry x="500" y="1010" width="90" height="40" as="geometry" />
        </mxCell>
        <mxCell id="otYcFLlBqvZuVtRaeN3p-142" value="&lt;u&gt;IdRota&lt;/u&gt;" style="ellipse;whiteSpace=wrap;html=1;fillColor=#d5e8d4;strokeColor=#82b366;" parent="WIyWlLk6GJQsqaUBKTNV-1" vertex="1">
          <mxGeometry x="450" y="960" width="90" height="40" as="geometry" />
        </mxCell>
        <mxCell id="otYcFLlBqvZuVtRaeN3p-143" value="distancia" style="ellipse;whiteSpace=wrap;html=1;dashed=1;fillColor=#d5e8d4;strokeColor=#82b366;" parent="WIyWlLk6GJQsqaUBKTNV-1" vertex="1">
          <mxGeometry x="650" y="960" width="90" height="40" as="geometry" />
        </mxCell>
        <mxCell id="otYcFLlBqvZuVtRaeN3p-144" value="" style="endArrow=none;html=1;rounded=0;entryX=0.5;entryY=1;entryDx=0;entryDy=0;exitX=0.5;exitY=0;exitDx=0;exitDy=0;" parent="WIyWlLk6GJQsqaUBKTNV-1" source="otYcFLlBqvZuVtRaeN3p-141" edge="1">
          <mxGeometry width="50" height="50" relative="1" as="geometry">
            <mxPoint x="599.5" y="960" as="sourcePoint" />
            <mxPoint x="599.5" y="920" as="targetPoint" />
          </mxGeometry>
        </mxCell>
        <mxCell id="otYcFLlBqvZuVtRaeN3p-145" value="" style="endArrow=none;html=1;rounded=0;exitX=0.5;exitY=0;exitDx=0;exitDy=0;" parent="WIyWlLk6GJQsqaUBKTNV-1" source="otYcFLlBqvZuVtRaeN3p-142" edge="1">
          <mxGeometry width="50" height="50" relative="1" as="geometry">
            <mxPoint x="620" y="1040" as="sourcePoint" />
            <mxPoint x="600" y="920" as="targetPoint" />
          </mxGeometry>
        </mxCell>
        <mxCell id="otYcFLlBqvZuVtRaeN3p-146" value="" style="endArrow=none;html=1;rounded=0;exitX=0.5;exitY=0;exitDx=0;exitDy=0;" parent="WIyWlLk6GJQsqaUBKTNV-1" source="otYcFLlBqvZuVtRaeN3p-143" edge="1">
          <mxGeometry width="50" height="50" relative="1" as="geometry">
            <mxPoint x="670" y="1000" as="sourcePoint" />
            <mxPoint x="600" y="920" as="targetPoint" />
          </mxGeometry>
        </mxCell>
        <mxCell id="otYcFLlBqvZuVtRaeN3p-147" value="destino" style="ellipse;whiteSpace=wrap;html=1;fillColor=#d5e8d4;strokeColor=#82b366;" parent="WIyWlLk6GJQsqaUBKTNV-1" vertex="1">
          <mxGeometry x="600" y="1010" width="90" height="40" as="geometry" />
        </mxCell>
        <mxCell id="otYcFLlBqvZuVtRaeN3p-148" value="" style="endArrow=none;html=1;rounded=0;exitX=0.5;exitY=0;exitDx=0;exitDy=0;entryX=0.5;entryY=1;entryDx=0;entryDy=0;" parent="WIyWlLk6GJQsqaUBKTNV-1" source="otYcFLlBqvZuVtRaeN3p-147" edge="1">
          <mxGeometry width="50" height="50" relative="1" as="geometry">
            <mxPoint x="749.5" y="980" as="sourcePoint" />
            <mxPoint x="600" y="920" as="targetPoint" />
          </mxGeometry>
        </mxCell>
        <mxCell id="otYcFLlBqvZuVtRaeN3p-151" value="&lt;u&gt;motorista&lt;/u&gt;" style="ellipse;whiteSpace=wrap;html=1;fillColor=#d5e8d4;strokeColor=#82b366;" parent="WIyWlLk6GJQsqaUBKTNV-1" vertex="1">
          <mxGeometry x="721" y="540" width="90" height="40" as="geometry" />
        </mxCell>
        <mxCell id="otYcFLlBqvZuVtRaeN3p-152" value="" style="endArrow=none;html=1;rounded=0;exitX=0;exitY=0.5;exitDx=0;exitDy=0;entryX=1;entryY=0.5;entryDx=0;entryDy=0;" parent="WIyWlLk6GJQsqaUBKTNV-1" source="otYcFLlBqvZuVtRaeN3p-151" target="otYcFLlBqvZuVtRaeN3p-9" edge="1">
          <mxGeometry width="50" height="50" relative="1" as="geometry">
            <mxPoint x="426" y="570" as="sourcePoint" />
            <mxPoint x="426" y="610" as="targetPoint" />
          </mxGeometry>
        </mxCell>
        <mxCell id="otYcFLlBqvZuVtRaeN3p-153" value="status" style="ellipse;whiteSpace=wrap;html=1;dashed=1;fillColor=#d5e8d4;strokeColor=#82b366;" parent="WIyWlLk6GJQsqaUBKTNV-1" vertex="1">
          <mxGeometry x="721" y="595" width="90" height="40" as="geometry" />
        </mxCell>
        <mxCell id="otYcFLlBqvZuVtRaeN3p-154" value="" style="endArrow=none;html=1;rounded=0;exitX=0;exitY=0.5;exitDx=0;exitDy=0;entryX=1;entryY=0.5;entryDx=0;entryDy=0;" parent="WIyWlLk6GJQsqaUBKTNV-1" source="otYcFLlBqvZuVtRaeN3p-153" target="otYcFLlBqvZuVtRaeN3p-9" edge="1">
          <mxGeometry width="50" height="50" relative="1" as="geometry">
            <mxPoint x="701" y="650" as="sourcePoint" />
            <mxPoint x="691" y="590" as="targetPoint" />
          </mxGeometry>
        </mxCell>
        <mxCell id="otYcFLlBqvZuVtRaeN3p-155" value="&lt;u&gt;IdCliente&lt;/u&gt;" style="ellipse;whiteSpace=wrap;html=1;fillColor=#d5e8d4;strokeColor=#82b366;" parent="WIyWlLk6GJQsqaUBKTNV-1" vertex="1">
          <mxGeometry x="130" y="730" width="90" height="40" as="geometry" />
        </mxCell>
        <mxCell id="otYcFLlBqvZuVtRaeN3p-156" value="" style="endArrow=none;html=1;rounded=0;entryX=0.5;entryY=1;entryDx=0;entryDy=0;exitX=1;exitY=0;exitDx=0;exitDy=0;" parent="WIyWlLk6GJQsqaUBKTNV-1" source="otYcFLlBqvZuVtRaeN3p-155" target="otYcFLlBqvZuVtRaeN3p-120" edge="1">
          <mxGeometry width="50" height="50" relative="1" as="geometry">
            <mxPoint x="180" y="685" as="sourcePoint" />
            <mxPoint x="180" y="645" as="targetPoint" />
          </mxGeometry>
        </mxCell>
        <mxCell id="otYcFLlBqvZuVtRaeN3p-157" value="&lt;u&gt;IdEntrega&lt;/u&gt;" style="ellipse;whiteSpace=wrap;html=1;fillColor=#d5e8d4;strokeColor=#82b366;" parent="WIyWlLk6GJQsqaUBKTNV-1" vertex="1">
          <mxGeometry x="185" y="780" width="90" height="40" as="geometry" />
        </mxCell>
        <mxCell id="otYcFLlBqvZuVtRaeN3p-158" value="" style="endArrow=none;html=1;rounded=0;entryX=0.5;entryY=1;entryDx=0;entryDy=0;exitX=0.5;exitY=0;exitDx=0;exitDy=0;" parent="WIyWlLk6GJQsqaUBKTNV-1" source="otYcFLlBqvZuVtRaeN3p-157" target="otYcFLlBqvZuVtRaeN3p-120" edge="1">
          <mxGeometry width="50" height="50" relative="1" as="geometry">
            <mxPoint x="184.75" y="700" as="sourcePoint" />
            <mxPoint x="184.75" y="660" as="targetPoint" />
          </mxGeometry>
        </mxCell>
        <mxCell id="otYcFLlBqvZuVtRaeN3p-159" value="&lt;u&gt;IdEntrega&lt;/u&gt;" style="ellipse;whiteSpace=wrap;html=1;fillColor=#d5e8d4;strokeColor=#82b366;" parent="WIyWlLk6GJQsqaUBKTNV-1" vertex="1">
          <mxGeometry x="260" y="750" width="90" height="40" as="geometry" />
        </mxCell>
        <mxCell id="otYcFLlBqvZuVtRaeN3p-160" value="" style="endArrow=none;html=1;rounded=0;entryX=0.5;entryY=1;entryDx=0;entryDy=0;exitX=0.5;exitY=0;exitDx=0;exitDy=0;" parent="WIyWlLk6GJQsqaUBKTNV-1" source="otYcFLlBqvZuVtRaeN3p-159" target="otYcFLlBqvZuVtRaeN3p-120" edge="1">
          <mxGeometry width="50" height="50" relative="1" as="geometry">
            <mxPoint x="274.75" y="700" as="sourcePoint" />
            <mxPoint x="274.75" y="660" as="targetPoint" />
          </mxGeometry>
        </mxCell>
        <mxCell id="otYcFLlBqvZuVtRaeN3p-161" value="&lt;u&gt;IdPedido&lt;/u&gt;" style="ellipse;whiteSpace=wrap;html=1;fillColor=#d5e8d4;strokeColor=#82b366;" parent="WIyWlLk6GJQsqaUBKTNV-1" vertex="1">
          <mxGeometry x="295" y="700" width="90" height="40" as="geometry" />
        </mxCell>
        <mxCell id="otYcFLlBqvZuVtRaeN3p-162" value="" style="endArrow=none;html=1;rounded=0;entryX=0.5;entryY=1;entryDx=0;entryDy=0;exitX=0.5;exitY=0;exitDx=0;exitDy=0;" parent="WIyWlLk6GJQsqaUBKTNV-1" source="otYcFLlBqvZuVtRaeN3p-161" target="otYcFLlBqvZuVtRaeN3p-120" edge="1">
          <mxGeometry width="50" height="50" relative="1" as="geometry">
            <mxPoint x="389.5" y="685" as="sourcePoint" />
            <mxPoint x="279.5" y="655" as="targetPoint" />
          </mxGeometry>
        </mxCell>
        <mxCell id="otYcFLlBqvZuVtRaeN3p-163" value="dataPedido" style="ellipse;whiteSpace=wrap;html=1;fillColor=#d5e8d4;strokeColor=#82b366;" parent="WIyWlLk6GJQsqaUBKTNV-1" vertex="1">
          <mxGeometry x="30" y="740" width="90" height="40" as="geometry" />
        </mxCell>
        <mxCell id="otYcFLlBqvZuVtRaeN3p-164" value="" style="endArrow=none;html=1;rounded=0;entryX=0.5;entryY=1;entryDx=0;entryDy=0;exitX=1;exitY=0;exitDx=0;exitDy=0;" parent="WIyWlLk6GJQsqaUBKTNV-1" source="otYcFLlBqvZuVtRaeN3p-163" target="otYcFLlBqvZuVtRaeN3p-120" edge="1">
          <mxGeometry width="50" height="50" relative="1" as="geometry">
            <mxPoint x="144.75" y="570" as="sourcePoint" />
            <mxPoint x="144.75" y="530" as="targetPoint" />
          </mxGeometry>
        </mxCell>
        <mxCell id="otYcFLlBqvZuVtRaeN3p-165" value="valor" style="ellipse;whiteSpace=wrap;html=1;fillColor=#d5e8d4;strokeColor=#82b366;" parent="WIyWlLk6GJQsqaUBKTNV-1" vertex="1">
          <mxGeometry x="30" y="690" width="90" height="40" as="geometry" />
        </mxCell>
        <mxCell id="otYcFLlBqvZuVtRaeN3p-166" value="" style="endArrow=none;html=1;rounded=0;entryX=0.5;entryY=1;entryDx=0;entryDy=0;exitX=1;exitY=0.5;exitDx=0;exitDy=0;" parent="WIyWlLk6GJQsqaUBKTNV-1" source="otYcFLlBqvZuVtRaeN3p-165" target="otYcFLlBqvZuVtRaeN3p-120" edge="1">
          <mxGeometry width="50" height="50" relative="1" as="geometry">
            <mxPoint x="449.5" y="670" as="sourcePoint" />
            <mxPoint x="449.5" y="630" as="targetPoint" />
          </mxGeometry>
        </mxCell>
        <mxCell id="otYcFLlBqvZuVtRaeN3p-168" value="possui" style="rhombus;whiteSpace=wrap;html=1;fillColor=#fff2cc;strokeColor=#d6b656;" parent="WIyWlLk6GJQsqaUBKTNV-1" vertex="1">
          <mxGeometry x="340" y="600" width="80" height="70" as="geometry" />
        </mxCell>
        <mxCell id="otYcFLlBqvZuVtRaeN3p-169" value="N" style="endArrow=none;html=1;rounded=0;exitX=1;exitY=0.5;exitDx=0;exitDy=0;entryX=0;entryY=0.5;entryDx=0;entryDy=0;" parent="WIyWlLk6GJQsqaUBKTNV-1" source="otYcFLlBqvZuVtRaeN3p-120" target="otYcFLlBqvZuVtRaeN3p-168" edge="1">
          <mxGeometry x="1" y="15" width="50" height="50" relative="1" as="geometry">
            <mxPoint x="310" y="680" as="sourcePoint" />
            <mxPoint x="350" y="630" as="targetPoint" />
            <mxPoint x="4" y="-1" as="offset" />
          </mxGeometry>
        </mxCell>
        <mxCell id="otYcFLlBqvZuVtRaeN3p-172" value="1" style="endArrow=none;html=1;rounded=0;entryX=0;entryY=0.5;entryDx=0;entryDy=0;exitX=1;exitY=0.5;exitDx=0;exitDy=0;" parent="WIyWlLk6GJQsqaUBKTNV-1" source="otYcFLlBqvZuVtRaeN3p-168" target="otYcFLlBqvZuVtRaeN3p-9" edge="1">
          <mxGeometry x="0.8621" y="18" width="50" height="50" relative="1" as="geometry">
            <mxPoint x="430" y="665" as="sourcePoint" />
            <mxPoint x="460" y="595" as="targetPoint" />
            <mxPoint as="offset" />
          </mxGeometry>
        </mxCell>
        <mxCell id="eeLdhVACIsekh0JZnN0h-0" value="dirige" style="rhombus;whiteSpace=wrap;html=1;fillColor=#fff2cc;strokeColor=#d6b656;" vertex="1" parent="WIyWlLk6GJQsqaUBKTNV-1">
          <mxGeometry x="400" y="750" width="80" height="70" as="geometry" />
        </mxCell>
        <mxCell id="eeLdhVACIsekh0JZnN0h-1" value="1" style="endArrow=none;html=1;rounded=0;exitX=0.5;exitY=0;exitDx=0;exitDy=0;entryX=0;entryY=0.5;entryDx=0;entryDy=0;" edge="1" parent="WIyWlLk6GJQsqaUBKTNV-1" target="eeLdhVACIsekh0JZnN0h-0" source="otYcFLlBqvZuVtRaeN3p-121">
          <mxGeometry x="0.8133" y="-8" width="50" height="50" relative="1" as="geometry">
            <mxPoint x="360" y="795" as="sourcePoint" />
            <mxPoint x="410" y="780" as="targetPoint" />
            <mxPoint as="offset" />
          </mxGeometry>
        </mxCell>
        <mxCell id="eeLdhVACIsekh0JZnN0h-2" value="1" style="endArrow=none;html=1;rounded=0;entryX=0.5;entryY=0;entryDx=0;entryDy=0;exitX=1;exitY=0.5;exitDx=0;exitDy=0;" edge="1" parent="WIyWlLk6GJQsqaUBKTNV-1" source="eeLdhVACIsekh0JZnN0h-0" target="otYcFLlBqvZuVtRaeN3p-122">
          <mxGeometry x="-0.8821" y="-12" width="50" height="50" relative="1" as="geometry">
            <mxPoint x="490" y="815" as="sourcePoint" />
            <mxPoint x="530" y="765" as="targetPoint" />
            <mxPoint as="offset" />
          </mxGeometry>
        </mxCell>
        <mxCell id="eeLdhVACIsekh0JZnN0h-3" value="N" style="endArrow=none;html=1;rounded=0;entryX=0.5;entryY=1;entryDx=0;entryDy=0;exitX=0.5;exitY=0;exitDx=0;exitDy=0;" edge="1" parent="WIyWlLk6GJQsqaUBKTNV-1" source="eeLdhVACIsekh0JZnN0h-0" target="otYcFLlBqvZuVtRaeN3p-9">
          <mxGeometry x="0.5149" y="11" width="50" height="50" relative="1" as="geometry">
            <mxPoint x="490" y="795" as="sourcePoint" />
            <mxPoint x="610" y="880" as="targetPoint" />
            <Array as="points" />
            <mxPoint y="1" as="offset" />
          </mxGeometry>
        </mxCell>
        <mxCell id="eeLdhVACIsekh0JZnN0h-4" value="dirige" style="rhombus;whiteSpace=wrap;html=1;fillColor=#fff2cc;strokeColor=#d6b656;" vertex="1" parent="WIyWlLk6GJQsqaUBKTNV-1">
          <mxGeometry x="385" y="450" width="80" height="70" as="geometry" />
        </mxCell>
        <mxCell id="eeLdhVACIsekh0JZnN0h-5" value="1" style="endArrow=none;html=1;rounded=0;exitX=0;exitY=0.5;exitDx=0;exitDy=0;entryX=1;entryY=0;entryDx=0;entryDy=0;" edge="1" parent="WIyWlLk6GJQsqaUBKTNV-1" target="eeLdhVACIsekh0JZnN0h-4" source="otYcFLlBqvZuVtRaeN3p-10">
          <mxGeometry x="-0.9219" y="-10" width="50" height="50" relative="1" as="geometry">
            <mxPoint x="310" y="485" as="sourcePoint" />
            <mxPoint x="395" y="480" as="targetPoint" />
            <mxPoint as="offset" />
          </mxGeometry>
        </mxCell>
        <mxCell id="eeLdhVACIsekh0JZnN0h-6" value="N" style="endArrow=none;html=1;rounded=0;entryX=0.5;entryY=0;entryDx=0;entryDy=0;" edge="1" parent="WIyWlLk6GJQsqaUBKTNV-1" source="eeLdhVACIsekh0JZnN0h-4" target="otYcFLlBqvZuVtRaeN3p-9">
          <mxGeometry x="-0.7375" y="7" width="50" height="50" relative="1" as="geometry">
            <mxPoint x="475" y="515" as="sourcePoint" />
            <mxPoint x="515" y="465" as="targetPoint" />
            <mxPoint as="offset" />
          </mxGeometry>
        </mxCell>
        <mxCell id="eeLdhVACIsekh0JZnN0h-8" value="possui" style="rhombus;whiteSpace=wrap;html=1;fillColor=#fff2cc;strokeColor=#d6b656;" vertex="1" parent="WIyWlLk6GJQsqaUBKTNV-1">
          <mxGeometry x="190" y="480" width="80" height="70" as="geometry" />
        </mxCell>
        <mxCell id="eeLdhVACIsekh0JZnN0h-9" value="N" style="endArrow=none;html=1;rounded=0;exitX=0.417;exitY=0;exitDx=0;exitDy=0;entryX=0.5;entryY=1;entryDx=0;entryDy=0;exitPerimeter=0;" edge="1" parent="WIyWlLk6GJQsqaUBKTNV-1" target="eeLdhVACIsekh0JZnN0h-8" source="otYcFLlBqvZuVtRaeN3p-120">
          <mxGeometry x="-0.7144" y="-10" width="50" height="50" relative="1" as="geometry">
            <mxPoint x="150" y="525" as="sourcePoint" />
            <mxPoint x="200" y="510" as="targetPoint" />
            <mxPoint as="offset" />
          </mxGeometry>
        </mxCell>
        <mxCell id="eeLdhVACIsekh0JZnN0h-10" value="1" style="endArrow=none;html=1;rounded=0;entryX=0.75;entryY=1;entryDx=0;entryDy=0;exitX=0.5;exitY=0;exitDx=0;exitDy=0;" edge="1" parent="WIyWlLk6GJQsqaUBKTNV-1" source="eeLdhVACIsekh0JZnN0h-8" target="otYcFLlBqvZuVtRaeN3p-7">
          <mxGeometry x="0.6667" y="-10" width="50" height="50" relative="1" as="geometry">
            <mxPoint x="280" y="545" as="sourcePoint" />
            <mxPoint x="320" y="495" as="targetPoint" />
            <mxPoint as="offset" />
          </mxGeometry>
        </mxCell>
      </root>
    </mxGraphModel>
  </diagram>
</mxfile>
